<svg xmlns="http://www.w3.org/2000/svg" width="800" height="450" viewBox="0 0 800 450">
  <defs>
    <linearGradient id="bg" x1="0%" y1="0%" x2="100%" y2="100%">
      <stop offset="0%" style="stop-color:#071828"/>
      <stop offset="100%" style="stop-color:#0D2B55"/>
    </linearGradient>
  </defs>
  <rect width="800" height="450" fill="url(#bg)"/>
  <rect x="0" y="444" width="800" height="6" fill="#FFDF01" opacity="0.6"/>

  <text x="52" y="42" font-family="'Courier New',monospace" font-size="10" fill="white" opacity="0.4" letter-spacing="3">FINANCIAL LITERACY</text>
  <text x="52" y="72" font-family="Georgia,'Times New Roman',serif" font-size="28" font-weight="bold" fill="white" opacity="0.92">Building Your Credit Score</text>

  <text x="400" y="212" font-family="Georgia,'Times New Roman',serif" font-size="100" font-weight="bold" fill="#FFDF01" text-anchor="middle" opacity="0.95">780</text>
  <text x="400" y="247" font-family="'Courier New',monospace" font-size="12" fill="white" opacity="0.45" text-anchor="middle" letter-spacing="5">VERY GOOD</text>

  <rect x="120" y="276" width="560" height="8" rx="4" fill="white" opacity="0.1"/>
  <rect x="120" y="276" width="448" height="8" rx="4" fill="white" opacity="0.28"/>
  <rect x="565" y="271" width="3" height="18" rx="1" fill="#FFDF01"/>

  <line x1="213" y1="274" x2="213" y2="286" stroke="white" stroke-opacity="0.18" stroke-width="1"/>
  <line x1="307" y1="274" x2="307" y2="286" stroke="white" stroke-opacity="0.18" stroke-width="1"/>
  <line x1="400" y1="274" x2="400" y2="286" stroke="white" stroke-opacity="0.18" stroke-width="1"/>
  <line x1="493" y1="274" x2="493" y2="286" stroke="white" stroke-opacity="0.18" stroke-width="1"/>

  <text x="120"  y="304" font-family="'Courier New',monospace" font-size="9" fill="white" opacity="0.25">300</text>
  <text x="680"  y="304" font-family="'Courier New',monospace" font-size="9" fill="white" opacity="0.25" text-anchor="end">900</text>
  <text x="166"  y="304" font-family="'Courier New',monospace" font-size="9" fill="white" opacity="0.2" text-anchor="middle">POOR</text>
  <text x="260"  y="304" font-family="'Courier New',monospace" font-size="9" fill="white" opacity="0.2" text-anchor="middle">FAIR</text>
  <text x="353"  y="304" font-family="'Courier New',monospace" font-size="9" fill="white" opacity="0.28" text-anchor="middle">GOOD</text>
  <text x="447"  y="304" font-family="'Courier New',monospace" font-size="9" fill="white" opacity="0.55" text-anchor="middle">VERY GOOD</text>
  <text x="590"  y="304" font-family="'Courier New',monospace" font-size="9" fill="white" opacity="0.2" text-anchor="middle">EXCEPTIONAL</text>

  <text x="52"   y="348" font-family="'Courier New',monospace" font-size="9" fill="white" opacity="0.28" letter-spacing="2">KEY FACTORS</text>
  <text x="52"   y="372" font-family="'Courier New',monospace" font-size="10" fill="white" opacity="0.5">PAYMENT HISTORY</text>
  <rect x="285"  y="364" width="120" height="5" rx="2" fill="white" opacity="0.1"/>
  <rect x="285"  y="364" width="108" height="5" rx="2" fill="white" opacity="0.5"/>
  <text x="413"  y="372" font-family="'Courier New',monospace" font-size="9" fill="white" opacity="0.3">90%</text>
  <text x="52"   y="398" font-family="'Courier New',monospace" font-size="10" fill="white" opacity="0.5">CREDIT UTILIZATION</text>
  <rect x="285"  y="390" width="120" height="5" rx="2" fill="white" opacity="0.1"/>
  <rect x="285"  y="390" width="36"  height="5" rx="2" fill="#FFDF01" opacity="0.75"/>
  <text x="413"  y="398" font-family="'Courier New',monospace" font-size="9" fill="#FFDF01" opacity="0.7">30%</text>
  <text x="52"   y="424" font-family="'Courier New',monospace" font-size="10" fill="white" opacity="0.5">CREDIT AGE</text>
  <rect x="285"  y="416" width="120" height="5" rx="2" fill="white" opacity="0.1"/>
  <rect x="285"  y="416" width="72"  height="5" rx="2" fill="white" opacity="0.32"/>
  <text x="413"  y="424" font-family="'Courier New',monospace" font-size="9" fill="white" opacity="0.25">60%</text>
</svg>
